<svg id="Layer_2" data-name="Layer 2" xmlns="http://www.w3.org/2000/svg" viewBox="0 0 12.39 14.17"><defs><style>.cls-1{opacity:0.98;}.cls-2{fill:#e1c3d8;}.cls-3{fill:#9b8996;}.cls-4{fill:#f5d5e6;}</style></defs><title>mousie</title><g class="cls-1"><path class="cls-2" d="M8.47,2.47A2.07,2.07,0,0,0,5.21,1.23,2.09,2.09,0,0,0,4.37,3,1.91,1.91,0,0,0,5,4.37a1.7,1.7,0,0,0,1.44.34" transform="translate(-1.76 -0.83)"/></g><g class="cls-1"><path class="cls-2" d="M8.5,2.45a3.41,3.41,0,0,1,2.14,1,1.32,1.32,0,0,1,.45,1.18,1.4,1.4,0,0,1-1,.85,2.84,2.84,0,0,0-1.24.58,1.51,1.51,0,0,0-.25,1.56A4,4,0,0,0,9.54,9a6.22,6.22,0,0,1,1.07,1.28,3.12,3.12,0,0,1-.45,3.49A4,4,0,0,1,6.77,15a5.42,5.42,0,0,1-3.25-1.73,6.68,6.68,0,0,1-1.74-5A6.67,6.67,0,0,1,4.35,3.54" transform="translate(-1.76 -0.83)"/></g><g class="cls-1"><path class="cls-2" d="M4.38,3.52l0,0" transform="translate(-1.76 -0.83)"/></g><g class="cls-1"><path class="cls-3" d="M8.59,3.82A.46.46,0,0,0,9,4.64a.48.48,0,0,0,.32-.5.46.46,0,0,0-.44-.4.51.51,0,0,0-.31.11" transform="translate(-1.76 -0.83)"/></g><g class="cls-1"><path class="cls-4" d="M8,15a5.09,5.09,0,0,0,2.23-.21,5.34,5.34,0,0,0,1.91-1.09A5.7,5.7,0,0,0,13.44,12a5.84,5.84,0,0,0,.66-2.16,6.43,6.43,0,0,0-.17-2.43c0-.1,0-.2-.08-.3a.05.05,0,0,0-.1,0A6.41,6.41,0,0,1,14,9.52a6,6,0,0,1-.56,2.2,5.63,5.63,0,0,1-1.21,1.69,5.34,5.34,0,0,1-1.81,1.16,5.21,5.21,0,0,1-2.18.32l-.27,0c-.06,0-.06.09,0,.1Z" transform="translate(-1.76 -0.83)"/></g></svg>